<?xml version="1.0" encoding="UTF-8" standalone="no"?>
<!-- Created with Inkscape (http://www.inkscape.org/) -->

<svg
   width="16"
   height="16"
   viewBox="0 0 4.2333332 4.2333332"
   version="1.1"
   id="svg1"
   sodipodi:docname="icon.svg"
   inkscape:export-filename="ic.svg"
   inkscape:export-xdpi="19.949867"
   inkscape:export-ydpi="19.949867"
   xmlns:inkscape="http://www.inkscape.org/namespaces/inkscape"
   xmlns:sodipodi="http://sodipodi.sourceforge.net/DTD/sodipodi-0.dtd"
   xmlns="http://www.w3.org/2000/svg"
   xmlns:svg="http://www.w3.org/2000/svg">
  <sodipodi:namedview
     id="namedview1"
     pagecolor="#505050"
     bordercolor="#eeeeee"
     borderopacity="1"
     inkscape:showpageshadow="0"
     inkscape:pageopacity="0"
     inkscape:pagecheckerboard="0"
     inkscape:deskcolor="#505050" />
  <defs
     id="defs1" />
  <g
     id="layer1"
     transform="matrix(0.20781111,0,0,0.20781111,-2.2662775,-0.49183037)">
    <path
       id="rect2"
       style="display:inline;fill:#00ff00;stroke-width:0.304476"
       d="M 10.905469,3.3364815 V 21.768019 a 0.9697626,0.9697626 45 0 0 0.969763,0.969763 h 18.431537 a 0.9697626,0.9697626 135 0 0 0.969763,-0.969763 V 3.3364815 A 0.9697626,0.9697626 45 0 0 30.306769,2.3667189 H 11.875232 a 0.9697626,0.9697626 135 0 0 -0.969763,0.9697626 z m 3.006763,1.0672379 H 28.269769 A 0.9697626,0.9697626 45 0 1 29.239532,5.373482 V 7.5084856 A 0.9697626,0.9697626 135 0 1 28.269769,8.4782482 H 13.912232 A 0.9697626,0.9697626 45 0 1 12.942469,7.5084856 V 5.373482 a 0.9697626,0.9697626 135 0 1 0.969763,-0.9697626 z m 0,6.1115296 h 14.357537 a 0.9697626,0.9697626 45 0 1 0.969763,0.969763 v 2.134476 a 0.9697626,0.9697626 135 0 1 -0.969763,0.969763 H 13.912232 a 0.9697626,0.9697626 45 0 1 -0.969763,-0.969763 v -2.134476 a 0.9697626,0.9697626 135 0 1 0.969763,-0.969763 z m 0,6.11153 h 14.357537 a 0.9697626,0.9697626 45 0 1 0.969763,0.969763 v 2.134477 a 0.9697626,0.9697626 135 0 1 -0.969763,0.969763 H 13.912232 a 0.9697626,0.9697626 45 0 1 -0.969763,-0.969763 v -2.134477 a 0.9697626,0.9697626 135 0 1 0.969763,-0.969763 z" />
    <path
       id="rect1"
       style="display:none;stroke-width:0.392573"
       d="m 14.839219,18.454368 1.123216,4.035215 H 3.4208855 a 1.3042188,1.3042188 135 0 0 -1.3042188,1.304219 v 2.683229 A 1.3042188,1.3042188 45 0 0 3.4208855,27.78125 H 15.962435 l -1.123216,4.035216 a 0.48624804,0.48624804 36.001545 0 0 0.737182,0.535625 l 9.794963,-6.495848 a 0.86493501,0.86493501 90 0 0 0,-1.441652 l -9.794963,-6.495848 a 0.48624801,0.48624801 143.99845 0 0 -0.737182,0.535625 z"
       transform="matrix(0.89813842,0,0,1,0.21560701,0)" />
  </g>
</svg>
